# xmcd
#
# Track frame offsets: 
#        150
#        14587
#        33373
#        49497
#        64147
#        77140
#        90790
#        106490
#        121046
#        137329
#        153696
#        170578
#
# Disc length: 2437 seconds
#
# Revision: 1
# Processed by: cddbd v1.5.2PL0 Copyright (c) Steve Scherf et al.
# Submitted via: ExactAudioCopy v1.0b1
#
DISCID=9609830c
DTITLE=Andrés Calamaro - La lengua popular
DYEAR=2007
DGENRE=Rock
TTITLE0=Los chicos
TTITLE1=Carnaval de Brasil
TTITLE2=5 minutos más (minibar)
TTITLE3=Soy tuyo
TTITLE4=Mi gin tonic
TTITLE5=La espuma de las orillas
TTITLE6=Cada una de tus cosas
TTITLE7=Comedor piquetero
TTITLE8=Sexy and barrigón
TTITLE9=De orgullo y de miedo
TTITLE10=La mitad del amor
TTITLE11=Mi cobain (superjoint)
EXTD=
EXTT0=
EXTT1=
EXTT2=
EXTT3=
EXTT4=
EXTT5=
EXTT6=
EXTT7=
EXTT8=
EXTT9=
EXTT10=
EXTT11=
PLAYORDER=
